<svg xmlns="http://www.w3.org/2000/svg" width="40.05" height="30.039" viewBox="0 0 40.05 30.039">
  <g id="eye_1_" data-name="eye (1)" transform="translate(0.001 -0.487)">
    <path id="Path_300" data-name="Path 300" d="M20.024,30.526A21.085,21.085,0,0,1,.412,17.6a5.5,5.5,0,0,1,0-4.182A21.085,21.085,0,0,1,20.024.487,21.085,21.085,0,0,1,39.636,13.415a5.5,5.5,0,0,1,0,4.182A21.085,21.085,0,0,1,20.024,30.526Zm0-27.535a18.587,18.587,0,0,0-17.3,11.383,2.983,2.983,0,0,0,0,2.268,18.588,18.588,0,0,0,17.3,11.381,18.587,18.587,0,0,0,17.3-11.383,2.977,2.977,0,0,0,0-2.266A18.586,18.586,0,0,0,20.024,2.99Zm0,0" transform="translate(0 0)" fill="#252525"/>
    <path id="Path_301" data-name="Path 301" d="M177.331,120.507a6.675,6.675,0,1,1,6.675-6.675A6.682,6.682,0,0,1,177.331,120.507Zm0-10.847a4.172,4.172,0,1,0,4.172,4.172A4.178,4.178,0,0,0,177.331,109.659Zm0,0" transform="translate(-157.307 -98.325)" fill="#252525"/>
  </g>
</svg>
