<svg xmlns="http://www.w3.org/2000/svg" width="40.085" height="35.241" viewBox="0 0 40.085 35.241">
  <g id="heart" transform="translate(0 -28.501)">
    <path id="Path_106" data-name="Path 106" d="M36.848,31.773a11.1,11.1,0,0,0-15.7.008l-1.1,1.1-1.113-1.113a11.089,11.089,0,0,0-15.7-.017,11.089,11.089,0,0,0,.017,15.7L19.223,63.4a1.139,1.139,0,0,0,1.615.008L36.831,47.477a11.12,11.12,0,0,0,.017-15.7ZM35.216,45.854,20.03,60.98,4.878,45.828A8.8,8.8,0,1,1,17.319,33.387l1.921,1.921a1.144,1.144,0,0,0,1.623,0l1.9-1.9a8.8,8.8,0,0,1,12.45,12.45Z" transform="translate(0)" fill="#252525"/>
  </g>
</svg>
