<svg xmlns="http://www.w3.org/2000/svg" width="11.858" height="20.076" viewBox="0 0 11.858 20.076">
  <g id="Left_arrow" data-name="Left arrow" transform="translate(11.858) rotate(90)">
    <g id="Group_1" data-name="Group 1">
      <path id="Path_1" data-name="Path 1" d="M19.755.991,19.1.329a1.1,1.1,0,0,0-1.553,0l-7.5,7.5L2.532.321a1.1,1.1,0,0,0-1.553,0L.321.979a1.1,1.1,0,0,0,0,1.553l8.942,8.974a1.123,1.123,0,0,0,.779.352h0a1.122,1.122,0,0,0,.776-.352l8.934-8.95a1.109,1.109,0,0,0,.321-.784A1.1,1.1,0,0,0,19.755.991Z" fill="#707070"/>
    </g>
  </g>
</svg>
