<svg xmlns="http://www.w3.org/2000/svg" width="214" height="151.06" viewBox="0 0 214 151.06">
  <g id="Quotemarks-left" transform="translate(-0.001 -9.412)">
    <path id="Path_293" data-name="Path 293" d="M86.048,65.634c-.431-4.66-.1-17.326,12.033-34.94a3.341,3.341,0,0,0-.389-4.261c-4.947-4.947-8.01-8.069-10.159-10.253-2.825-2.88-4.115-4.193-6-5.9a3.351,3.351,0,0,0-4.441-.042c-21.15,18.4-44.642,56.433-41.243,103.025C37.84,140.615,57.8,160.472,83.3,160.472a47.459,47.459,0,0,0,2.753-94.838ZM83.3,153.784c-21.9,0-39.045-17.248-40.779-41.011v0c-3.824-52.4,27.325-86.436,36.736-95.449.918.9,1.966,1.969,3.51,3.543,1.861,1.894,4.409,4.487,8.262,8.353C76.294,51.912,79.073,68.083,80.291,70.4a3.463,3.463,0,0,0,3,1.842,40.771,40.771,0,1,1,0,81.541Z" transform="translate(83.246 0)" fill="#dedede"/>
    <path id="Path_294" data-name="Path 294" d="M50.536,65.633c-.434-4.647-.114-17.3,12.033-34.94a3.346,3.346,0,0,0-.389-4.261c-4.937-4.937-8-8.056-10.142-10.24-2.834-2.887-4.128-4.2-6.015-5.917a3.359,3.359,0,0,0-4.441-.045C20.432,28.633-3.063,66.655.329,113.256v0c2,27.354,21.957,47.212,47.457,47.212a47.459,47.459,0,0,0,2.75-94.838Zm-2.75,88.151C25.892,153.784,8.735,136.536,7,112.77v0C3.184,60.36,34.333,26.33,43.744,17.321c.921.9,1.973,1.976,3.52,3.553,1.858,1.894,4.4,4.483,8.249,8.343C40.782,51.915,43.561,68.082,44.779,70.4a3.471,3.471,0,0,0,3.007,1.845,40.771,40.771,0,1,1,0,81.541Z" transform="translate(0 0.001)" fill="#dedede"/>
  </g>
</svg>
